<svg xmlns="http://www.w3.org/2000/svg" viewBox="0 0 50 50"><path style="line-height:normal;text-indent:0;text-align:start;text-decoration-line:none;text-decoration-style:solid;text-decoration-color:#000;text-transform:none;block-progression:tb;isolation:auto;mix-blend-mode:normal" d="M15 0c-1.093 0-2 .907-2 2H6C4.355 2 3 3.355 3 5v36c0 1.645 1.355 3 3 3h30c1.645 0 3-1.355 3-3V5c0-1.645-1.355-3-3-3h-7c0-1.093-.907-2-2-2H15zm0 2h12v3c0 .565-.435 1-1 1H16c-.565 0-1-.435-1-1V2zM6 4h7v1c0 1.645 1.355 3 3 3h10c1.645 0 3-1.355 3-3V4h7c.555 0 1 .445 1 1v36c0 .555-.445 1-1 1H6c-.555 0-1-.445-1-1V5c0-.555.445-1 1-1zm15 10v2h2v-2h-2zm4 0v2h2v-2h-2zm4 0v2h2v-2h-2zm4 0v2h2v-2h-2zm8 0v2h2v-2h-2zm4 0v2h2v-2h-2zm-24 4v2h2v-2h-2zm24 0v2h2v-2h-2zm-24 4v2h2v-2h-2zm24 0v2h2v-2h-2zm-24 4v2h2v-2h-2zm24 0v2h2v-2h-2zm-24 4v2h2v-2h-2zm24 0v2h2v-2h-2zm-24 4v2h2v-2h-2zm24 0v2h2v-2h-2zm-24 4v2h2v-2h-2zm24 0v2h2v-2h-2zm0 4v2h2v-2h-2zm-24 4v2h2v-2h-2zm4 0v2h2v-2h-2zm4 0v2h2v-2h-2zm4 0v2h2v-2h-2zm4 0v2h2v-2h-2zm4 0v2h2v-2h-2zm4 0v2h2v-2h-2z"/></svg>